<svg id="Layer_1" data-name="Layer 1" xmlns="http://www.w3.org/2000/svg" viewBox="0 0 532.27 532.27"><defs><style>.cls-1{fill:#fff;}</style></defs><circle cx="266.13" cy="266.13" r="266.13"/><g id="XYE7QE.tif"><path class="cls-1" d="M224.09,419.46c.18-1.14-.45-2.37.75-3.39,1-.89,2.06-2,.31-3.34-.08-.05.27-.65.41-1a50.63,50.63,0,0,1,9.13-15c.49-.57.13-.7-.12-1.08a1.06,1.06,0,0,1,0-1c2-2.67,3.31-5.76,5.08-8.56a87.27,87.27,0,0,1,5.39-8.42,34.67,34.67,0,0,0,3.6-5.89,61.09,61.09,0,0,1,3.88-6.11c.47-.68,1.23-1.12,1.1-2.15,0-.36.38-.86.71-1.15a14.3,14.3,0,0,0,4.44-6.56,35.27,35.27,0,0,1,3.93-8,22.16,22.16,0,0,0,4.17-8.9c.28-1.62,3.74-6.84,5.1-8.17,2-1.93,3.64-4,3.71-6.94a1.52,1.52,0,0,1,.5-.8c1.24-1.3,2.33-2.91,2.39-4.17a5.68,5.68,0,0,1,1.94-4,12.51,12.51,0,0,0,2.59-3.7c1-2.14,2.1-4.28,3.17-6.41.83-1.64,2.2-3,3-4.63a27.11,27.11,0,0,1,3.1-4.63c1.58-1.93,3.15-3.86,3.26-6.77a8.31,8.31,0,0,1,2.76-5.81,17.7,17.7,0,0,0,2.61-3.32,19.91,19.91,0,0,1,3.35-3.33,20.61,20.61,0,0,0,5.21-7.77c1-2.4,2.83-4.45,4.14-6.75,1.55-2.69,3.84-4.94,4.92-7.88a9,9,0,0,1,2.36-3.83,7.51,7.51,0,0,0,1.71-2.58,21.27,21.27,0,0,1,4.54-6.59c1.15-1.19,2.1-2.56,3.14-3.84.15-.19.46-.42.43-.55-.6-1.93,1.17-3,1.69-4.46a30.69,30.69,0,0,1,2-4.31c.91-1.71,1.94-3.37,2.88-5.07.55-1,1-2,1.52-3,.14-.31.11-.76.32-1,2.86-2.58,3.68-6.34,5.52-9.51a34.35,34.35,0,0,0,3.12-6.42,34.33,34.33,0,0,1,3.07-6.08c1.49-2.59,3.12-5.09,4.66-7.64a23.12,23.12,0,0,0,1.7-3,10.32,10.32,0,0,1,4.11-4.82,5.3,5.3,0,0,0,2.21-2.43,22.23,22.23,0,0,0,1.2-3.19,22.59,22.59,0,0,1,1.53-3c1-2,2.17-4.26,4.85-4.79a2.54,2.54,0,0,0,1.42-1A57.46,57.46,0,0,0,379.45,155c.62-1.57,1.93-2.87,2.8-4.36,2.73-4.66,4.84-9.69,8.56-13.76a15.61,15.61,0,0,0,2.27-3.83,84.18,84.18,0,0,1,6.09-10.34,9.48,9.48,0,0,1,1.33-2,22,22,0,0,0,5.3-7.76c.92-2,2.7-3.86,2.33-6.41,0-.11.6-.25.8-.48,1-1.11,2.29-2,2.83-3.38.6-1.62,1.52-2.55,3.38-2.53,1.19,0,1.14.69,1,1.41a3.84,3.84,0,0,1-.68,1.18c-.25.39-.73.77-.72,1.15,0,1.52,1.48,3,0,4.57,0,0,.42.52.59.82,1,1.78,2.46,3.46,3,5.38.59,2.29,1.89,4.14,2.77,6.23.5,1.16,1.24,2.24,1,3.63a2,2,0,0,0,.29,1.33c2.72,3.84,4.43,8.25,7,12.21,3.33,5.19,5.69,11,9.36,16,1.13,1.55,1.73,3.44,2.81,5.09s2.15,3.28,3.31,4.88a22,22,0,0,1,2,3.92,41,41,0,0,0,4.19,7.81c1.61,2.15,2.29,4.78,4.09,6.81,1,1.09,1.38,2.64,2.27,3.81,3.61,4.79,6,10.23,8.85,15.47,2.1,3.93,4.73,7.59,6.76,11.56,1.57,3.07,3.8,5.72,5.29,8.83,1.18,2.45,2.62,4.76,3.72,7.29s3.17,4.55,4.53,7c1.07,1.88,2.1,3.79,3.17,5.68q5.82,10.27,11.76,20.51a1.8,1.8,0,0,0,1.19.93c2.1.8,2.87,2.86,3.81,4.59s1.1,3.72,1.94,5.44c.55,1.11.45,2.45,1.67,3.44.69.55,1.07,2,1.55,3,1.55,3.22,3.51,6.16,5.35,9.19,2.36,3.91,5,7.72,6.87,11.86,1.48,3.25,3.68,6,5.16,9.26,1.8,3.93,4.42,7.49,6.66,11.23,1.64,2.75,3.28,5.5,4.86,8.28,2.48,4.37,4.61,9,7.47,13.07,2.38,3.42,3.85,7.3,6.31,10.68,1.51,2.08,2.26,4.69,3.86,6.85,3.21,4.32,5.51,9.21,8.14,13.9,2.17,3.89,4.09,8,6.71,11.54,2.48,3.38,4.82,6.84,7.11,10.33a47.52,47.52,0,0,1,3.07,5.72c.37.79.85.89,1.31.42,1-1,1.29.22,1.53.56.38.52.18,1.09-.71,1.16-.67.05-.86.4-.09.71,1.18.46,2.44.84,1.12,2.44a2.07,2.07,0,0,0,.54.5,4,4,0,0,0,2.65.78c.29-.06,1,.42,1,.59a1.52,1.52,0,0,1-.67,1.14,15.52,15.52,0,0,1-2.39.45c-.2,0-.36.25-.54.37l.59.36a5,5,0,0,1,1.41,1c.38.51.38,1.3-.54,1.2-1.68-.18-1.35.45-.76,1.42a21.34,21.34,0,0,1,1.24,2.43c.14.3.28.9.2.95-.39.2-1,.5-1.27.34a6.44,6.44,0,0,1-1.61-1.6c-.47-.63-.8-1.94-1.19-1.94-2.37,0-3.51-2.72-6.09-2.37a47.29,47.29,0,0,1-7.34.05,5.49,5.49,0,0,1-2.37-.47c-.7-.37-1-.09-1.56.2-2.14,1.09-4.36,1.66-6.71.47a1.7,1.7,0,0,0-1.37-.15c-1.65,1.18-3.49.66-5.24.68-5.76.06-11.53.05-17.29,0-1.14,0-2.42.5-3.45-.6-.13-.14-.79.23-1.21.33-2,.44-4,.75-5.82-.47a4.86,4.86,0,0,0-3-.71,23.87,23.87,0,0,0-4.4.07c-1.21.24-2.31-1.26-3.45-.07-2.49-1.34-5.19-.57-7.79-.71-1.52-.08-3.22-.47-4.28,1.2a33.19,33.19,0,0,1-5.65-.13,5,5,0,0,0-1.8.13,65.66,65.66,0,0,1-6.88.14c-.72-1.28-1.85.15-2.23-.17-.75-.63-1.65.64-2.15-.39-.91,1-1.69.82-2.82.12a2.25,2.25,0,0,0-2.94.49c-.7-.87-1.69-.67-2.61-.68-5.15,0-10.3,0-15.46,0-2,0-3.86,1.23-5.95.76-1.36-.3-2.79.37-4.17-.67a3,3,0,0,0-2.8.06c-2.27,1.59-4.57-.13-6.82.35-.48.11-1.06-.43-1.61-.46-1.22-.08-2.65-.42-3.63.07-1.34.67-2.32-.42-3.49-.12s-2.29-.32-3.5.51c-.57.4-1.89-.29-2.88-.49s-1.64,1-2.77.09c-.53-.43-1.95-.17-2.74.23-1,.52-1.61-.84-2.46-.31-1.28.79-2.54-.06-3.81,0-1.47.05-3.22-.48-4.35.14-1.43.78-2.33-.67-3.51-.15-.83.36-1.88.92-2.61.69-4.41-1.41-8.95,0-13.32-.77-2.86-.49-5.73-.28-8.52-.74-1.85-.3-3.54-1-5.3.1a.5.5,0,0,1-.36,0,8.22,8.22,0,0,0-4.56-.06,26.13,26.13,0,0,1-4.77.07h-9.93c-1.72,0-3.44-.09-5.15,0-2.73.17-5.44.56-8.16.68s-5.4.12-8.1,0a38.16,38.16,0,0,1-4.84-.71c-1.62-.29-3.38.69-4.93-.59-.2-.17-1,.53-1.47.53-3.77,0-7.54-.09-11.3-.15-.81-1-2.19,1.21-2.86-.52-1.05,0-2.15-.21-3,.71-.18.18-.76.14-1.07,0-2.88-1.28-5.71.41-8.6.09s-5.89,0-8.83-.09c-1.27,0-2.34,1.09-3.87.13-1-.61-2.68.11-4-.18a4.8,4.8,0,0,0-3.48,0c-1.12.52-2.67-.55-3.74.71-2.39-.1-4.76.44-7.17-.29a5.92,5.92,0,0,0-4.11,0c-1.2.64-2.75-.33-3.58,1.06-.59-1.81-2.09.67-2.86-.58-.06-.09-.79.24-1.21.34s-1,.43-1.33.26c-2.15-1.24-4.47-.56-6.71-.67s-4.41,0-6.62,0c-1.43,0-2.71,1.42-4.09.7-2.09-1.09-4,.51-6,.12-.45-.09-1.26.63-1.59,1.17-1.07,1.74-2,3.58-3,5.38Zm294.74-35.32c-2.72,0-5,0-7.31,0-.9,0-2.56-1.46-2.59-2.15s1.62-2.17,2.51-2.24c.61-.05,1.22,0,1.84,0,2.69,0,5.4-.1,8.09,0,1.24.06,2.64-.69,3.75.47a23,23,0,0,1-1.7,3.69,24,24,0,0,1-2.81,2.9,2.14,2.14,0,0,0-.46.74c1.07.89.08,2.25.62,3.06.78,1.18-.26,2.09,0,3.11,0,.2.34.35.52.53,1.87-2,5.12-2.68,5.52-6.14A2.29,2.29,0,0,1,528.7,386c.47,0,.89-.79,1.29-1.25.09-.1.09-.46,0-.49s-.51-.21-.66-.12c-.89.53-2.34,1-2.5,1.71-.37,1.67-2.47,2-2.52,3.78,0,.09-1,.36-1.16.19-.55-.49-1.47-.86-.69-2s1.08-2.8,1.95-3.95c1.53-2,3.34-3.78,6.25-3.42.48.06,1.17.2,1.43-.05,1.39-1.36,1.72.05,1.78.81.1,1.13.52,2.44-.64,3.4-.1.08.18.62.28.95.17-.14.4-.24.51-.41a10.27,10.27,0,0,0,1-1.78c.89-2.33,1.79-4.66,2.52-7.05.21-.69.29-1.06,1.08-1,.63,0,1,.07,1.24.87a5.5,5.5,0,0,1-.28,4.1c-1.21,2.81-2.58,5.56-3.87,8.33a2.83,2.83,0,0,0-.14.52c.33,0,.74.2,1,.06,1.3-.72.68-2.93,2.51-3.29-.4-1.95.87-1.8,2.14-1.77a2.3,2.3,0,0,1,1.93.74c.69.82,0,1.19-.28,1.82s.1,1.71-.83,2.23a10.52,10.52,0,0,1,1.94.55c.38.18.9.72.85,1s-.6.75-1,1c-.16.12-.48,0-.72,0a3.85,3.85,0,0,0-3.28,2.57c-.92,2.06-1.68,4.21-2.65,6.25-.38.81,0,.71.49.74,3.58.26,7.23-.63,10.74.73a1.39,1.39,0,0,0,.73,0c1-.22,1.93-1.13,3-.17,3.06-1.18,6.23-.28,9.34-.53.34,0,.79.5,1,.4a5.82,5.82,0,0,1,5.08.22c.8.4,2.06-.15,3.12-.27-.52-.76-1.09-1.5-1.53-2.3a14,14,0,0,0-1.09-2.48A42.13,42.13,0,0,1,561.9,386,39.52,39.52,0,0,0,559,380.2a45.82,45.82,0,0,1-3.88-6.86,11.63,11.63,0,0,0-1.83-3.27,45.44,45.44,0,0,1-6.21-9.95c-1.23-2.43-2.27-5-3.69-7.29s-3.08-4.13-4.64-6.18c-1,.2-1-.63-1.28-1.24q-4.1-7.87-8.31-15.68c-1-1.92-2.16-3.79-3.38-5.59-3.62-5.33-7.06-10.76-10.25-16.36-1.47-2.58-2.9-5.17-4.44-7.71-.33-.54-1.06-1.24-1.57-1.21-1.82.12-3.48-.71-5.21-.76-9.22-.3-18.44.32-27.67-.68-5-.54-10-.12-15.07-.08-1,0-2.07-.3-3.1.59-.46.39-2,.64-2.48-.42-.3-.67-.45-.91-1.17-.95-2.13-.11-4.25-1.57-6.38,0-3-.18-5.86,1.22-8.9.75a2.27,2.27,0,0,0-2.84,1.51c-.52,1.22-1.52,2.28-1.8,3.67-.38,2-1.86,3.36-2.68,5.13-1.47,3.18-2.48,6.71-5.1,9.31a3.65,3.65,0,0,0-.64,1.56,17.31,17.31,0,0,1-4.09,7.49c-2.92,2.94-4.32,6.89-6.93,10-.12.14.18.91.28.91,2.26,0,4.35,1.34,6.65.82.54-.12,1.41-.74,1.47-.65.89,1.2,1.55.35,2.43,0,.67-.25,1.59.17,2.4.3.42.06,1,.34,1.23.17,1.69-1.21,3.56-.23,5.3-.55,1.2,1.53,3-.79,4.21.67,3.07-1.62,6.52-.11,9.77-1.26a6.5,6.5,0,0,1,5.9.59c4.2,0,8.43.34,12.56-.76.32-.09.56-.57.76-.91.34-.59.47-1.4.95-1.78,1.37-1.06,3-1.81,4.27-3a7.16,7.16,0,0,1,2.53-1c2.34-1,4.49-.56,6.8,0,1.42.34,2.81.6,3.67,1.78,1.15,1.57,2.61,3.17,3,5a9.64,9.64,0,0,1-2,8.27c-1.46,1.8-3.27,3.31-4.91,5a4.08,4.08,0,0,1-3.81,1.38,35.25,35.25,0,0,1-5.19-1.67,5,5,0,0,1-3-3.8,2.08,2.08,0,0,0-2.53-1.85,9.21,9.21,0,0,1-3.28-.07c-1-.36-1.62,1.32-2.82.17-.58-.55-2.13,0-3.22-.12-1.38-.15-2.73.31-4.18-.6a4.73,4.73,0,0,0-3.93,0c-1.89.94-3.76.46-5.63.62-.85.08-2-.33-2.53.08-1.78,1.29-3.87,0-5.54.87-1.89.95-3.79.36-5.67.51-1.71.13-3.43,0-5.15,0-1,0-2.17.35-2.89-.08-1.15-.69-2.41-1.13-3.27-.36-1.22,1.09-2.13-.23-3.08.05-1.64.5-3.18.81-4.76-.2a1.29,1.29,0,0,0-1.2.28c-.8,1-1.85,2-2.09,3.14a7,7,0,0,1-1.29,2.44,31.79,31.79,0,0,1-3.91,5.37,2.3,2.3,0,0,0-.75,1.5c.16,1.58-.75,2.59-1.43,3.85-1,1.8-2.65,2.79-3.83,4.29a14.53,14.53,0,0,0-2.11,2.44c-1.58,3.39-3,6.86-4.46,10.29a67.62,67.62,0,0,1-2.82,6.18c-1.71,3.09-3.54,6.09-4.57,9.52-.52,1.72-1.58,3.28-2.12,5-.37,1.16-1.15.76-1.72.7-.88-.09-.47-.93-.52-1.47,0-.2.17-.41.27-.62,1.3-2.77,2.62-5.53,3.88-8.32.15-.34,0-.83-.05-1.25a3.53,3.53,0,0,0-.77.65c-2.35,3.8-4,8-7,11.46-.4.47.06,1.14.91,1.07,6.19-.54,12.28,1.09,18.46.75a4.52,4.52,0,0,1,2.46.23,1.93,1.93,0,0,0,2.81-.23,1.72,1.72,0,0,0,2.79.15,1,1,0,0,1,.95,0c.76.85,1.24.52,2.11,0a3.1,3.1,0,0,1,2.81-.07c1.37,1.07,2.82.33,4.16.68,1.65.42,3-.76,4.49-.76,3.43,0,6.87,0,10.3,0s6.6-1.27,10-.75a22.53,22.53,0,0,0,3.17.31c.95,0,1.89-.25,2.84-.29,1.22-.06,2.45,0,3.68,0h32.37c1.23,0,2.58-.32,3.65.09,1.28.49,1.85-1.63,3.3-.47.59.47,2.09-.31,3.18-.33,2.69-.06,5.39-.09,8.09,0A22.87,22.87,0,0,0,508,398.9c2.3-1,4.76-1.41,6.9-2.92,1.69-1.2,1.89-3.06,2.82-4.57.1-.15-.42-.85-.79-1.08-.79-.5-.43.38-.64.61-1.46,1.59-2.51,1.52-4-.05-.49-.54-.18-.68.11-1.07C514.66,386.74,514.65,386.73,518.83,384.14ZM346.31,401.06c5.27,0,10.55,0,15.82,0a2.82,2.82,0,0,0,2.59-1.41c2.11-2.86,3.84-6,6.86-8.18a9.26,9.26,0,0,0,2.35-3c2-3.51,4.13-6.91,6.41-10.25,1.12-1.63,2.49-3.08,3.63-4.68,2-2.84,3.74-5.91,6-8.6a99.78,99.78,0,0,0,6.81-9.66,73.07,73.07,0,0,0,3.87-6.49,28,28,0,0,0,1.4-4.11c-1.48-.23-2.79-1-4.37-1.05-4.56-.19-9.17.77-13.69-.63a4.59,4.59,0,0,0-3.25,0c-1.75,1-3.51.51-5.26.65a8.45,8.45,0,0,0-2.2,0c-4.13,1.57-8.4.28-12.58.7-.77-1-1.35-.45-1.85.27-.33.46-.54,1-.86,1.48-1.32,1.88-2,4.14-3.17,6a41.59,41.59,0,0,0-3.57,6.64,31.64,31.64,0,0,1-2.86,5.43c-1.12,1.73-2.58,3.24-3,5.41-.08.47-.72,1-1.22,1.21a6.34,6.34,0,0,0-3.85,5.07c-.12.91-.62.82-1.23.86-.81.05-.9-.34-1.05-1.06-.42-2,1.32-4,.07-6-.12-.19.11-.68.29-.95a17.33,17.33,0,0,1,1.84-2.54c.54-.57,1.6-.75,1.92-1.37s-.26-1.4-.38-2.13c0-.18.21-.39.3-.6,1.83-4.32,2.18-9.05,4-13.43,1.34-3.25,1.37-7,2.4-10.42.69-2.27.26-4.93,2.13-6.83-.62-1.62,1.49-2.09,1.47-3.44,0-2.84,1.14-5.38,2-8,.47-1.52,1.28-3.41.75-4.63a3.08,3.08,0,0,1,.24-3.18,4.38,4.38,0,0,0,.71-1.9c0-2.37,1.91-4.29,1.54-6.73,1.57-1.43,1.17-3.44,1.62-5.22s1-3.77,1.4-5.69a23.23,23.23,0,0,0,.63-5.23c1.64-1.29.28-3.19,1-4.75a24.44,24.44,0,0,0,1.21-5c.05-.27-.23-.6-.36-.9-.18.17-.42.32-.51.53a12.76,12.76,0,0,1-3.68,4.34c-1.41,1.2-3.06,2.1-4.54,3.21-3.28,2.47-6.78,4.72-9.71,7.56-2.76,2.68-6.52,4.23-8.59,7.67a.74.74,0,0,1-.63.2c-1-.22-1.53.51-2.12,1.11-1,1-2.09,2.07-3.12,3.12a9.76,9.76,0,0,0-2.9,4.7,8.61,8.61,0,0,1-5.14,5.49,2.42,2.42,0,0,1-1.94,0c-.54-.32-.74-.32-1.08.12-1,1.28-1.2,3.06-2.59,4.09,0,0,.08.36.19.5.87,1.08.35,1.4-.76,1.55-.29,0-.48.62-.79.73-2,.68-2.95,2.94-5.31,3.27-.82.12-1.09-.18-1.27-.5a2.26,2.26,0,0,1-.28-1.68c.57-1.47,1.41-2.84,2-4.32s2.35-2.8,1.66-4.84a.76.76,0,0,1,.19-.64c1.93-1.68,1.93-4.42,3.48-6.29a34.49,34.49,0,0,0,4.41-7.74,11.74,11.74,0,0,1,1-2.16,91.78,91.78,0,0,0,5.19-8.9c2-3.47,4-6.94,6-10.38.36-.61.48-1.47-.05-1.4-1,.15-1.35-1.65-2.53-.51-3.58,3.44-7.26,6.76-10.85,10.18-.56.54-.78,1.44-1.34,2s-1.59,1-2.26,1.61c-1.52,1.41-2.76,3.27-4.49,4.31s-3.73,1.79-4.57,3.94a1,1,0,0,1-.88.43c-1.17-.25-1.24.63-1.63,1.34-.5.91-1.2,1.71-1.79,2.57-.33.47-.85,1-.86,1.47-.08,1.88-1.32,3-2.54,4.1a13.63,13.63,0,0,0-4,5.71c-.53,1.67-1.56,3-2.12,4.66a20.22,20.22,0,0,1-3.57,5.85c-1.48,1.84-2.11,4.06-3.31,6a73.26,73.26,0,0,1-4.23,6.69,74,74,0,0,0-6.15,9.59,76.27,76.27,0,0,0-4.1,8.25c-.41,1-2.53,1.79-1,3.4-.6,1-1.15,2.16-2.57,2.18-.71,0-1,.15-1.17.94s-1.19,1.53-1.34,2.37c-.51,2.93-2.29,5-4.18,7.12a14.59,14.59,0,0,0-2.83,4.33c-1.1,3-2.75,5.73-4,8.63a12.32,12.32,0,0,1-2.52,3.74,19.68,19.68,0,0,0-4.91,8.63,11.53,11.53,0,0,1-3.15,5.33c-.17.15-.17.5-.25.76a5.43,5.43,0,0,0,1-.07,6.51,6.51,0,0,0,1.95-.59c1.07-.69,1.68,1,2.86.33.86-.47,2.1-.21,3.17-.31,2.36-.21,4.68,0,7.09-.57,3.21-.7,6.63-.35,10-.78a77.93,77.93,0,0,1,12.13-.09c4.07.14,8.15-.49,12.23.63,2,.54,4.29-.28,6.29.81,3.87-.42,7.65.58,11.47.72,2.33.09,4.66,0,7,0s4.67.1,7,0,4.46-.62,6.69-.67C336.5,401,341.4,401.06,346.31,401.06ZM467.14,226.27c-.26-.56-.3-.83-.46-1-1-.81-.55-2.44-1.91-3.05s-.84-2.17-1.85-3.12-1.3-2.59-1.82-4a61.82,61.82,0,0,0-5.91-10.77c-1.23-1.94-2.51-3.89-3.61-5.89-.82-1.48-2.51-2.57-2.28-4.57-2-2.68-2-6.45-4.91-8.67a2.83,2.83,0,0,1-.91-2.14c.19-2.73-1.55-4.78-2.29-7.17a5.61,5.61,0,0,0-1.29-2.39c-1.76-1.63-2.54-3.88-3.79-5.82-2.6-4-5-8.22-7.4-12.38-1.09-1.86-1.87-3.94-3.12-5.68a108,108,0,0,1-8.22-13.54,69.13,69.13,0,0,0-6.06-9.61c-.69-.92-1.06-.86-1.75.13-2,2.85-4,5.72-6,8.54-1,1.33-2.12,2.54-3.1,3.87s-1.59,2.87-2.69,4c-1.67,1.72-2.44,3.93-3.49,5.94s-3.46,3.34-3.2,6c-2.58,3.13-4.15,6.9-6.47,10.21-1,1.37-2.22,2.58-2.51,4.5a2.71,2.71,0,0,1-2.09,2.54c-.51.08-.94.92-1.33,1.46a25.4,25.4,0,0,0-2.11,3.18,67.83,67.83,0,0,1-11.19,15.6,11.31,11.31,0,0,0-1.42,2.35c-.43.8-.74,1.66-1.21,2.44-3,5-6.15,9.95-9.07,15-2.33,4.06-4.13,8.43-7,12.16-.54.69.2,2.38.88,2.1,1.26-.53,2.53.17,3.42-.09,1.21-.35,2.08-.94,3.11.14,1.06-1.27,2.5-.68,3.76-.68q23-.06,46,0c1.4,0,2.84-.38,4.16.66.43.33,1.41,0,2.11-.08a12.68,12.68,0,0,1,2-.57,28.17,28.17,0,0,0,10.22-2c.31-.12.85-.3,1-.17,1,1.14,2.31.4,3.41.7a6.87,6.87,0,0,0,3.46,0,8.47,8.47,0,0,1,2.93,0c1,.13,2,.55,3,.68a24,24,0,0,0,2.94,0h5.89c.86,0,1.73-.06,2.58,0s1.83.65,2.5.37c1-.42,1.55.64,2.49.4a8.65,8.65,0,0,1,2.92,0c3.72.31,7.5-.73,11.17.57C466.69,226.61,467,226.33,467.14,226.27ZM417,233.48l0,.41a24.52,24.52,0,0,1,2.72.19,1.27,1.27,0,0,1,.9.72c.1.65.34,1.57-.91,1.46-2.72-.25-5.45-.48-8.16-.75-2.11-.21-4.17.07-6.36-.58-2.79-.84-5.89-.69-8.86-.86-1.71-.11-3.43,0-5.15,0s-3.19-.06-4.78,0-3.14.36-4.71.36-3.07-.3-4.61-.36c-1.72-.07-3.46.17-5.15-.06s-3.45.44-5.3.16a42.5,42.5,0,0,0-8.81-.08c-2.84.17-5.79-.8-8.54.68a1.18,1.18,0,0,1-1.07,0c-1.86-1.49-4-.38-6-.68a1.32,1.32,0,0,0-1,.61c-1.27,2.28-2.51,4.59-3.69,6.92-.82,1.63-1.72,3.28-2.64,4.77-1.52,2.45-2.53,5.12-4,7.57-.53.88-.86,2.22-1.63,2.55-1.27.53-1.53,1.55-2,2.49a28.27,28.27,0,0,1-1.55,3.39c-3,4.24-5.34,8.92-8.53,13a17.39,17.39,0,0,0-1.7,3.33.9.9,0,0,0,.14.67.6.6,0,0,0,.48-.05c1.23-1.2,2.81-2.22,3.57-3.68a11.79,11.79,0,0,1,4.06-4.48c2.49-1.63,4.21-3.95,6.39-5.83s4.64-3.55,6.38-5.78a49.55,49.55,0,0,1,8-8.39c3.32-2.67,6.15-5.8,9.25-8.67a6.38,6.38,0,0,1,.79-.77,1.4,1.4,0,0,1,.93-.32,1,1,0,0,1,.49.77c0,.94.17,2.22-.35,2.75-2.12,2.18-2.42,5.18-3.78,7.68-1.18,2.17-1.73,4.67-2.69,7a19.82,19.82,0,0,1-2.36,4.52,42.61,42.61,0,0,0-5.26,10c-1.54,3.75-3.72,7.05-5.63,10.54-1.1,2-2.31,3.95-3.44,5.94-.08.14.1.43.16.65a1.59,1.59,0,0,0,.52-.15c1.64-1.38,3.31-2.73,4.89-4.17,1.13-1,2.39-2,2.87-3.58,1.75-.27,2.34-2,3.61-2.85.64-.42.08-1.93,1.49-1.57,1.39-1.38,2.75-2.79,4.19-4.11s3.15-2.25,4.32-3.69c2.93-3.6,5.52-7.48,8.11-11.34,1-1.48,2-2.8,4.06-3.08,1.11-.14,2.07-1.45,3.1-2.23-.32-2,1.75-2.15,2.55-3.29a12.17,12.17,0,0,0,1.53-2.31c.55-1.41,2.44-1.95,2.35-3.75,0-.17.3-.41.51-.51a2.26,2.26,0,0,1,1-.24c.12,0,.35.36.35.55,0,2.23.4,4.52-.89,6.62a4.66,4.66,0,0,0-.54,2c-.09,1,.38,2.41-.11,2.85-1.26,1.14-.26,2.72-1.26,4-.69.89-.13,2.66-.79,4-.58,1.21-.31,2.82-.86,4.05-1.05,2.33-1.16,4.87-2,7.25-1.08,3-2.06,6-3,9.07-.21.73-1.65,2.09.18,2.94.13.06.21.59.1.74-1.48,2-.9,4.49-1.85,6.6a4.63,4.63,0,0,0-.77,2.64c.58,4.79-1.64,9.1-2.61,13.62-.4,1.87,0,4.06-1.76,5.53-.12.1,0,.47,0,.71a6.77,6.77,0,0,1-1.27,5c-.29.35-.09,1.12-.12,1.7.43-.25,1-.4,1.27-.76a21.54,21.54,0,0,0,1.58-2.65c2.17-4.09,4-8.42,7.55-11.6a4.68,4.68,0,0,0,.55-.86c2.07-2.91,3.51-6.21,5.64-9.09.76-1,.26-1.65-.86-.52-.37-.46-.94-.88-1.05-1.4-.21-.92.61-.8,1.19-.8a9,9,0,0,0,2.2,0,6.61,6.61,0,0,0,1.68-1.09,14.13,14.13,0,0,0-1.7-.32c-.73-.06-1.47,0-2.2,0-.42,0-1.13-.25-1.16-.46a3.8,3.8,0,0,1,.27-1.62c1.46.12,1.75-2.05,3.44-1.61s2.11-1.78,3.5-2.16c.18-.05.43.14.65.17a6.1,6.1,0,0,0,4.55-1.24c.79-.77,1.54-1.59,2.36-2.32a1.07,1.07,0,0,1,.95-.25c.22.09.35.56.4.87.06.49-.12,1,.06,1.45a1.6,1.6,0,0,0,1,.52c1.21-1.59,3.13-.29,4.69-1.26,1.24-.77,3.34-.2,5.05-.12.33,0,.94.52.9.69-.32,1.62.68,1.51,1.74,1.49,2.7,0,5.4,0,8.1,0,.73,0,1.6-.26,2.18,0,2.79,1.43,5.72.55,8.55.58.92,0,1.93-.53,3-.17,1.2-1.36,2.15.31,3.19.24a32.9,32.9,0,0,0,4.78-.88c.3-.07.59-.45.77-.76.64-1.08,1.25-2.17,1.83-3.28,2.71-5.25,5.74-10.34,7.92-15.85.37-.95.83-1.86,1.17-2.82.27-.74-1.1-1.44.07-2.34a11.06,11.06,0,0,0,1.86-2.51c.15-.19.4-.32.51-.53a216.41,216.41,0,0,1,11.88-19.71c1.67-2.56,2.5-5.67,5.42-7.76Zm83.55,58.69c1.83,0,3.67,0,5.51,0,.18,0,.35-.34.53-.52-1.54-.58-1.12-2.23-1.79-3.3-1.81-2.91-3.56-5.86-5.2-8.87s-3-6-5.46-8.4a4.7,4.7,0,0,1-.63-1.2c-1.32-2.38-2.61-4.76-3.75-7.26a64.44,64.44,0,0,0-6.25-11,36,36,0,0,1-2.5-4.47c-.52-1-.93-2.06-1.43-3.08a33.11,33.11,0,0,0-1.56-3c-.92-1.47-1.94-2.88-2.91-4.31a.8.8,0,0,0-1.44-.1c-.54.62-1,1.33-1.51,1.94-1.91,2.19-2.81,5-4.44,7.34-1.39,2-2.49,4.15-3.81,6.1s-2.28,4.26-3.67,6.26a50.34,50.34,0,0,0-5.5,9.09c-.66,1.56-1.86,2.92-1.85,4.74-1.65,1-1.38,3.11-2.72,4.43-1.14,1.13-1.54,3-2.3,4.51a4.76,4.76,0,0,1-1,1.43,14.33,14.33,0,0,0-4.37,6.58c-.13.35-.92.59,0,.94.64.23,1.65.86,1.84.67,1-1,1.82.35,2.77.1s1.87.17,2.65-.76,1.68,1.37,2.79.19c.19-.2,1.18.51,1.78.48s1.65-.82,1.84-.63c1.82,1.86,3.82-.49,5.63.36,1.22-1.46,1.93,1.1,3.23.38a10.08,10.08,0,0,1,3.34-.77c.27,0,.6.39.91.4,1.64.06,3.39.41,4.9,0,1-.28,2.28-.66,2.68-.29,1.13,1,2-.72,2.76-.07,1.8,1.48,4.13.16,6.08,1.34,1,.6,2.64,0,4,.13,1.15.07,2.45-.5,3.39.66,1.16-1.17,2.21.4,3.43.12A18,18,0,0,1,500.51,292.17Zm-108.08,8.1c-1.36,0-2.59,0-3.81,0a1.75,1.75,0,0,0-1.12.54c-1.72,2.09-3.27,4.34-5.12,6.31s-2.93,4.66-5.34,6.25c-.72.48-1,1.76-1.29,2.72-.09.26.45.9.35,1-2.58,2.46-3.61,5.9-5.48,8.8-1.18,1.84-2.25,3.74-3.56,5.5a55,55,0,0,0-3.11,5c-.15.27,0,.72,0,1.08.35-.11.85-.12,1-.36.59-.85,1.41-.79,2.28-.77s2,0,2.94,0,2.18-.38,3,.68c.71-1.5,1.64.83,2.29-.1,1.05-1.5,1.82.35,2.77.16,1.24-.26,2.66.53,3.78-.72.21-.24.94-.07,1.43,0,1.25.12,2.47,1.56,3.76.09,3.77,1.46,7.68.46,11.51.53,1.27,0,2.53,1.22,3.84.18,0,0,.31.29.5.4,1,.57,1.68.21,2.55-.46s.77-1.94,1.28-2.81c1.83-3.05,3.57-6.18,5.68-9,1.8-2.42,2.6-5.42,4.89-7.6a12.42,12.42,0,0,0,2.86-5c1-3,2.78-5.5,4.46-8.09a31.25,31.25,0,0,1,3.91-5.37c.13-.12,0-.47,0-.72a2,2,0,0,1-.77,0c-1.34-.49-2.89,1.3-4.1-.39-1.13.24-2.25.5-3.38.73s-2.28-1.73-3.55-.31c-.58.66-.93-.89-1.66,0-.36.45-1.58.34-2.39.27-.65-.06-1.28-.69-1.9-.65-1,.06-1.5-.6-2.13-1.14a1.75,1.75,0,0,0-.91-.36c-1.06,1.58-2.08-.18-3.1,0s-2.42-.51-3.48.49c-.61.58-1,.14-1.52-.29s-1,0-1.52.37-.42.62,0,1.08.35.9-.39,1.33C396.09,300.61,394.17,300.14,392.43,300.27Zm93,36.82c.11-1-.32-1.4-1.29-1.7-1.39-.42-2.64-1.33-4-1.7-1.07-.28-2.55-.49-3.37,0a7.06,7.06,0,0,0-3,3.42,5.31,5.31,0,0,0,1.45,5.54c.88.84,1.75,1.7,2.59,2.58s1.49.74,2.52.26C483.94,343.82,484.93,340.62,485.43,337.09Zm39.69,61.07a6,6,0,0,1,0,1c-.09.43-1.58,1.18.2,1.15,2.71-.05,5.34-1.09,8.1-.74.15,0,.55-.5.52-.72a6.61,6.61,0,0,1,1.15-4.27c.85-1.42-.14-1.92-.79-2.27-1-.54-.9.62-1.24,1.17-.46.76-1.1,1.23-1.78.13s-2.2,1.21-2.83-.58c0-.09-.47-.1-.68,0a.91.91,0,0,0-.52.46C526.5,395.1,524.48,396.2,525.12,398.16ZM393.23,298.06c1.08,0,2.17,0,3.26,0,.2,0,.52-.46.52-.7s-.33-.69-.53-.7c-1.39-.1-2.75.06-4.09-.7a1.67,1.67,0,0,0-2.23.57c-.17.29-.52.72-.43.87a1.54,1.54,0,0,0,1,.67A23.89,23.89,0,0,0,393.23,298.06Z" transform="translate(-140.65 -31.5)"/><path class="cls-1" d="M304.31,388.56H292.17a11.89,11.89,0,0,0-5.24.67c-.42.2-1.53.57-1.74-.58a1.66,1.66,0,0,1,.7-1.91,4.12,4.12,0,0,1,.58-.38c1.44-.55,2.47-1.4,2.39-3.11,2.61-2.23,2.35-5.89,4.28-8.57,1.1-1.51,1.46-3.63,3.08-4.94.16-2.64,1.86-4.64,3-6.85a52.85,52.85,0,0,1,5-7.9,35.11,35.11,0,0,0,4.45-8.79c1.12-2.94,3.22-5.26,4.55-8.05.39-.83,2.5-.43,2.67.6.46,2.91,2.16,5.29,3.31,7.84,1.48,3.31,2.31,6.89,4.2,10.05.9,1.52,1,3.49,1.68,5.18a109.08,109.08,0,0,0,5,11.52c2.15,4,3.13,8.51,5.07,12.62.48,1-1,3.2-2.08,3.32a.8.8,0,0,1-.63-.21c-.7-.9-1.46-1.35-2.5-.51-.82-1-2-.78-3-.71s-2.2-.5-3.07.6c-.16.19-.75,0-1,.13-1.15.68-1.8-1.45-3.27-.39-.9.66-2.54.31-3.86.36s-2.45,0-3.68,0h-7.73Zm10-44.5c-1.69,3.63-3.46,6.82-4.68,10.21a50.38,50.38,0,0,1-4.32,9.21c-2.67,4.39-5.29,8.79-7.62,13.37a14.58,14.58,0,0,1-1.92,3.58,4.32,4.32,0,0,0-1,3.28c-.05,1,.37,1.22,1.27,1.18,2.73-.13,5.43.15,8.17-.66,1.68-.49,3.64-.09,5.47-.09s3.93.13,5.87,0c1.75-.15,3.64.75,5.26-.59,1.76.87,3.47-.29,5.21-.11a4.32,4.32,0,0,1,1.72.26c.54.32,1.05.87,1.49.18a2.29,2.29,0,0,0,0-1.69c-.66-2-1.82-3.9-2.32-6a5.68,5.68,0,0,0-.81-2.21c-.47-.6-1.37-.84-2-1.36s-1.25-1.05-1.29-1.63c-.16-1.88-2.34-3.13-1.57-5.27.07-.19-.35-.56-.52-.86a32.74,32.74,0,0,1-3.75-11.62C316.49,350.06,315.24,347.32,314.31,344.06Z" transform="translate(-140.65 -31.5)"/></g></svg>