<svg id="Layer_1" data-name="Layer 1" xmlns="http://www.w3.org/2000/svg" viewBox="0 0 496.7 432.82"><g id="XYE7QE.tif"><path d="M158.63,502.74c.26-1.54-.6-3.21,1-4.59,1.42-1.2,2.8-2.76.42-4.53-.09-.07.38-.89.56-1.36A68.84,68.84,0,0,1,173,472c.66-.76.18-1-.17-1.46a1.43,1.43,0,0,1-.06-1.3c2.73-3.61,4.48-7.81,6.88-11.6s4.49-7.91,7.3-11.4a46.08,46.08,0,0,0,4.88-8,84.62,84.62,0,0,1,5.27-8.29c.63-.92,1.66-1.51,1.49-2.91-.06-.48.51-1.16,1-1.55,3.29-2.88,4.51-5.07,6-8.9s2.85-7.4,5.32-10.83,4.86-7.5,5.65-12.06c.38-2.19,5.08-9.27,6.92-11.08,2.66-2.61,4.92-5.41,5-9.4,0-.37.39-.77.68-1.08,1.68-1.77,3.16-3.94,3.24-5.66a7.73,7.73,0,0,1,2.62-5.41,16.76,16.76,0,0,0,3.52-5c1.39-2.9,2.85-5.8,4.3-8.68,1.12-2.23,3-4.07,4.12-6.29a35.86,35.86,0,0,1,4.2-6.26c2.13-2.62,4.27-5.24,4.41-9.18a11.35,11.35,0,0,1,3.74-7.88,24,24,0,0,0,3.55-4.49,25.78,25.78,0,0,1,4.53-4.51,28,28,0,0,0,7.06-10.54c1.36-3.26,3.84-6,5.62-9.14,2.09-3.66,5.2-6.7,6.66-10.69a12.5,12.5,0,0,1,3.2-5.19,10.32,10.32,0,0,0,2.33-3.5,28.52,28.52,0,0,1,6.15-8.93c1.55-1.6,2.84-3.46,4.25-5.2.2-.25.63-.57.58-.74-.81-2.61,1.59-4,2.29-6.05a41.36,41.36,0,0,1,2.74-5.84c1.24-2.32,2.63-4.56,3.9-6.87.75-1.34,1.4-2.74,2.06-4.13.2-.41.15-1,.44-1.3,3.87-3.49,5-8.59,7.47-12.88a46.5,46.5,0,0,0,4.24-8.71,46.4,46.4,0,0,1,4.16-8.23c2-3.51,4.22-6.9,6.32-10.36a32.84,32.84,0,0,0,2.29-4,14.08,14.08,0,0,1,5.57-6.54,7.15,7.15,0,0,0,3-3.29,29.17,29.17,0,0,0,1.62-4.33,31.57,31.57,0,0,1,2.08-4.09c1.35-2.77,2.94-5.77,6.58-6.5a3.4,3.4,0,0,0,1.92-1.3c3.56-5.09,7-10.24,9.28-16.09.83-2.14,2.6-3.89,3.78-5.91,3.71-6.32,6.56-13.14,11.61-18.64a21.65,21.65,0,0,0,3.07-5.2,115.81,115.81,0,0,1,8.26-14,13.07,13.07,0,0,1,1.79-2.72,29.84,29.84,0,0,0,7.19-10.51c1.24-2.76,3.66-5.23,3.16-8.69,0-.15.81-.34,1.08-.65,1.3-1.51,3.11-2.65,3.83-4.59.82-2.18,2.07-3.45,4.59-3.42,1.61,0,1.55.93,1.38,1.9a4.91,4.91,0,0,1-.92,1.6c-.34.53-1,1.06-1,1.57.05,2.05,2,4.09,0,6.19-.05.06.57.7.8,1.11,1.39,2.41,3.33,4.69,4,7.29.8,3.11,2.56,5.61,3.76,8.44.67,1.57,1.68,3,1.41,4.92a2.71,2.71,0,0,0,.38,1.81c3.69,5.2,6,11.18,9.45,16.54,4.52,7,7.72,14.87,12.69,21.67,1.54,2.1,2.34,4.67,3.81,6.91s2.91,4.45,4.49,6.61a29.69,29.69,0,0,1,2.75,5.32,56.49,56.49,0,0,0,5.68,10.57c2.18,2.92,3.11,6.49,5.55,9.23,1.3,1.48,1.88,3.58,3.08,5.17,4.88,6.49,8.18,13.87,12,21,2.86,5.32,6.42,10.28,9.17,15.66,2.13,4.17,5.15,7.75,7.17,12,1.6,3.33,3.55,6.45,5,9.88s4.29,6.17,6.14,9.43c1.45,2.55,2.85,5.14,4.3,7.69q7.89,14,15.93,27.81a2.44,2.44,0,0,0,1.62,1.25c2.84,1.09,3.89,3.88,5.16,6.24s1.5,5,2.64,7.36c.74,1.51.6,3.33,2.26,4.66.93.75,1.44,2.66,2.1,4,2.09,4.36,4.76,8.34,7.24,12.45,3.21,5.3,6.78,10.46,9.32,16.08,2,4.4,5,8.15,7,12.55,2.43,5.33,6,10.15,9,15.21,2.23,3.73,4.45,7.46,6.6,11.23,3.36,5.91,6.24,12.15,10.11,17.71,3.23,4.64,5.23,9.9,8.56,14.48,2,2.81,3.06,6.36,5.23,9.28,4.35,5.86,7.47,12.48,11,18.84,3,5.27,5.54,10.8,9.09,15.64,3.37,4.57,6.54,9.26,9.64,14a63.94,63.94,0,0,1,4.16,7.74c.51,1.08,1.16,1.22,1.78.58,1.36-1.4,1.75.29,2.08.75.51.71.23,1.48-1,1.58-.91.07-1.17.55-.13,1,1.59.62,3.3,1.14,1.52,3.31a2.73,2.73,0,0,0,.73.67c1.12.57,2.15,1.35,3.59,1.07.4-.08,1.36.57,1.33.79a2.11,2.11,0,0,1-.9,1.55,22.76,22.76,0,0,1-3.25.61c-.26.06-.49.33-.73.51l.8.47a7,7,0,0,1,1.91,1.32c.51.69.51,1.77-.73,1.63-2.27-.25-1.84.61-1,1.92a31.82,31.82,0,0,1,1.68,3.29c.19.41.38,1.23.27,1.29-.53.28-1.37.69-1.73.46a8.9,8.9,0,0,1-2.17-2.16c-.64-.85-1.09-2.64-1.61-2.63-3.22,0-4.76-3.69-8.25-3.22a63.65,63.65,0,0,1-10,.07,7.64,7.64,0,0,1-3.21-.63c-.95-.5-1.35-.12-2.12.27-2.9,1.48-5.91,2.24-9.08.63a2.28,2.28,0,0,0-1.86-.19c-2.23,1.59-4.73.88-7.1.91-7.81.09-15.63.07-23.44,0-1.55,0-3.28.68-4.67-.81-.18-.19-1.07.32-1.65.44-2.69.6-5.42,1-7.88-.63a6.71,6.71,0,0,0-4.09-1c-2,0-4-.28-6,.1-1.64.33-3.12-1.7-4.68-.09-3.38-1.82-7-.77-10.56-1-2.05-.11-4.35-.64-5.79,1.63-2.56,0-5.18.26-7.66-.19a6.9,6.9,0,0,0-2.45.18,93.06,93.06,0,0,1-9.31.2c-1-1.75-2.51.2-3-.24-1-.85-2.25.87-2.92-.53-1.23,1.36-2.29,1.12-3.82.16a3.05,3.05,0,0,0-4,.66c-1-1.17-2.3-.9-3.55-.91-7,0-14,0-20.94,0-2.75,0-5.23,1.68-8.07,1-1.84-.41-3.78.5-5.65-.91a4.09,4.09,0,0,0-3.8.08c-3.07,2.15-6.2-.18-9.24.48-.65.14-1.44-.59-2.18-.64-1.66-.1-3.59-.56-4.92.1-1.82.91-3.15-.57-4.73-.15s-3.11-.44-4.74.69c-.78.53-2.57-.4-3.9-.67s-2.23,1.36-3.76.12c-.72-.58-2.64-.23-3.71.31-1.4.7-2.19-1.14-3.34-.42-1.74,1.07-3.45-.08-5.17,0-2,.06-4.35-.66-5.89.18-1.93,1.06-3.16-.91-4.76-.2-1.12.49-2.55,1.25-3.54.94-6-1.91-12.12,0-18-1-3.88-.67-7.77-.39-11.56-1-2.5-.41-4.79-1.35-7.18.13a.64.64,0,0,1-.49,0c-2-.78-4-.48-6.17-.08a35.78,35.78,0,0,1-6.47.08H339.11c-2.33,0-4.66-.12-7,0-3.69.23-7.37.77-11.06.93s-7.32.16-11,0a50.78,50.78,0,0,1-6.57-1c-2.19-.39-4.57.93-6.67-.8-.28-.22-1.32.72-2,.72-5.11,0-10.21-.12-15.32-.2-1.09-1.32-3,1.64-3.87-.7-1.43,0-2.91-.3-4.11,1-.24.25-1,.19-1.45,0-3.89-1.73-7.73.56-11.66.12s-8,0-12-.12c-1.72,0-3.17,1.47-5.25.18-1.31-.83-3.63.15-5.37-.25s-3-.78-4.71,0c-1.53.71-3.63-.75-5.08,1-3.23-.13-6.45.6-9.71-.4-1.75-.53-4.12-.79-5.58,0-1.62.87-3.72-.45-4.84,1.44-.8-2.46-2.84.91-3.89-.78-.08-.13-1.06.31-1.64.46s-1.4.58-1.8.35c-2.91-1.69-6.06-.77-9.09-.92s-6,0-9,0c-1.93,0-3.67,1.92-5.54.95-2.83-1.49-5.44.68-8.2.15-.61-.11-1.7.86-2.14,1.59-1.46,2.37-2.71,4.85-4,7.29Zm399.48-47.86c-3.69,0-6.8,0-9.92,0-1.22,0-3.47-2-3.51-2.92s2.2-2.94,3.4-3c.83-.07,1.66,0,2.49,0,3.66,0,7.32-.13,11,.06,1.69.09,3.58-.93,5.09.64a31.19,31.19,0,0,1-2.31,5,33.59,33.59,0,0,1-3.81,3.93,3.23,3.23,0,0,0-.63,1c1.46,1.2.12,3.05.85,4.14,1.06,1.6-.35,2.83-.06,4.21.06.28.46.48.71.72,2.54-2.7,6.94-3.64,7.48-8.32a3.12,3.12,0,0,1,2.61-2.86c.65-.06,1.21-1.07,1.76-1.69.12-.14.12-.62,0-.66-.27-.14-.7-.29-.9-.17-1.21.72-3.17,1.34-3.39,2.32-.51,2.26-3.35,2.73-3.41,5.13,0,.11-1.31.49-1.58.25-.75-.66-2-1.17-.93-2.74s1.46-3.8,2.64-5.35c2.07-2.73,4.53-5.13,8.47-4.63.65.08,1.59.27,1.94-.07,1.89-1.85,2.32.06,2.41,1.1.13,1.52.71,3.3-.87,4.61-.13.11.24.83.38,1.27a3,3,0,0,0,.7-.55,13.87,13.87,0,0,0,1.4-2.41c1.2-3.16,2.42-6.32,3.4-9.55.29-.94.4-1.44,1.46-1.39.86,0,1.31.1,1.68,1.18a7.38,7.38,0,0,1-.37,5.56c-1.64,3.81-3.49,7.53-5.25,11.29a3.78,3.78,0,0,0-.18.7c.45,0,1,.27,1.33.09,1.76-1,.92-4,3.39-4.46-.54-2.65,1.18-2.45,2.91-2.4a3.11,3.11,0,0,1,2.61,1c.94,1.11.06,1.61-.38,2.47s.14,2.31-1.12,3a15.28,15.28,0,0,1,2.63.75c.51.25,1.22,1,1.15,1.35-.11.54-.81,1-1.34,1.39-.22.16-.65,0-1,0a5.22,5.22,0,0,0-4.44,3.48c-1.25,2.8-2.28,5.71-3.59,8.48-.52,1.09.05.95.66,1,4.85.35,9.8-.87,14.55,1a1.75,1.75,0,0,0,1,0c1.35-.3,2.62-1.54,4.06-.24,4.14-1.6,8.44-.38,12.66-.72.46,0,1.07.69,1.41.55a7.86,7.86,0,0,1,6.88.3c1.08.54,2.8-.21,4.23-.37-.7-1-1.48-2-2.07-3.12s-.73-2.46-1.48-3.36a56.4,56.4,0,0,1-8.45-14.46,54.12,54.12,0,0,0-3.9-7.85,62,62,0,0,1-5.26-9.29,15.81,15.81,0,0,0-2.48-4.44c-3.58-4-6-8.73-8.42-13.48-1.66-3.3-3.07-6.74-5-9.88-1.82-3-4.17-5.6-6.28-8.37-1.41.27-1.31-.86-1.74-1.69q-5.55-10.67-11.26-21.25c-1.41-2.59-2.93-5.13-4.59-7.57-4.89-7.23-9.56-14.59-13.88-22.17-2-3.5-3.94-7-6-10.46-.45-.73-1.44-1.68-2.12-1.63-2.48.15-4.72-1-7.08-1-12.49-.4-25,.43-37.49-.92-6.74-.73-13.62-.17-20.43-.1-1.39,0-2.81-.42-4.2.79-.62.53-2.73.87-3.36-.56-.4-.91-.6-1.23-1.58-1.29-2.89-.15-5.77-2.14-8.65,0-4.07-.24-7.94,1.66-12.06,1-1.66-.25-3,0-3.86,2-.7,1.67-2.06,3.1-2.43,5-.52,2.66-2.52,4.56-3.63,7-2,4.31-3.37,9.09-6.92,12.61a5.1,5.1,0,0,0-.86,2.12,23.61,23.61,0,0,1-5.54,10.15c-4,4-5.87,9.34-9.4,13.59-.16.19.24,1.24.38,1.24,3.06,0,5.9,1.81,9,1.11.72-.16,1.9-1,2-.88,1.2,1.63,2.09.47,3.3,0,.89-.34,2.14.23,3.24.4.57.09,1.34.47,1.67.24,2.28-1.64,4.82-.31,7.18-.74,1.63,2.07,4.07-1.08,5.7.9,4.17-2.2,8.85-.15,13.25-1.7a8.75,8.75,0,0,1,8,.8c5.7-.07,11.43.46,17-1,.43-.11.76-.76,1-1.23.46-.79.63-1.9,1.29-2.41,1.85-1.44,4-2.46,5.78-4,1.1-1,2.31-.93,3.43-1.4,3.18-1.31,6.08-.75,9.22,0,1.93.46,3.81.8,5,2.4,1.55,2.13,3.53,4.31,4.08,6.74a13,13,0,0,1-2.74,11.21c-2,2.44-4.43,4.49-6.64,6.74a5.54,5.54,0,0,1-5.18,1.86,47.93,47.93,0,0,1-7-2.26,6.79,6.79,0,0,1-4.12-5.15c-.45-2.09-1.58-2.59-3.42-2.51-1.49.06-3.12.38-4.45-.09s-2.19,1.79-3.82.23c-.78-.75-2.88,0-4.36-.16-1.87-.2-3.71.41-5.67-.81a6.4,6.4,0,0,0-5.33,0c-2.56,1.28-5.09.62-7.63.84-1.15.11-2.66-.44-3.42.11-2.42,1.75-5.26,0-7.51,1.18-2.57,1.29-5.14.49-7.69.69-2.31.18-4.65,0-7,0-1.33,0-2.94.47-3.92-.11-1.55-.93-3.26-1.53-4.42-.49-1.66,1.49-2.9-.31-4.19.08-2.22.67-4.3,1.09-6.44-.27a1.75,1.75,0,0,0-1.63.37c-1.08,1.34-2.51,2.71-2.83,4.26a9.36,9.36,0,0,1-1.75,3.31,43,43,0,0,1-5.31,7.27,3.18,3.18,0,0,0-1,2c.23,2.15-1,3.51-1.94,5.23-1.31,2.44-3.59,3.77-5.19,5.8-.9,1.15-2.26,2.05-2.85,3.32-2.14,4.58-4,9.29-6.05,13.94-1.22,2.81-2.33,5.7-3.82,8.38-2.33,4.18-4.8,8.25-6.2,12.89-.7,2.34-2.13,4.45-2.87,6.77-.5,1.57-1.56,1-2.32.95-1.21-.13-.65-1.27-.72-2,0-.26.24-.55.37-.83,1.76-3.75,3.55-7.5,5.25-11.28.21-.46,0-1.12-.06-1.69a4.71,4.71,0,0,0-1,.87c-3.19,5.16-5.48,10.85-9.48,15.54-.54.63.09,1.55,1.24,1.45,8.38-.74,16.64,1.48,25,1,1.12-.06,2.49-.22,3.33.32,1.52,1,2.62.91,3.81-.31,1.19,1.31,2.41,1.46,3.78.2a1.35,1.35,0,0,1,1.29-.05c1,1.16,1.68.71,2.86,0,1-.59,3-.72,3.8-.09,1.87,1.45,3.83.45,5.65.92,2.22.57,4-1,6.08-1,4.65,0,9.3,0,14,0s8.95-1.72,13.55-1a29.67,29.67,0,0,0,4.3.42c1.28,0,2.56-.33,3.85-.39,1.65-.07,3.32,0,5,0h43.88c1.66,0,3.49-.44,4.94.12,1.74.67,2.51-2.21,4.48-.65.8.64,2.82-.4,4.3-.44,3.65-.08,7.31-.11,11,0,4.51.13,8.89-.18,13.15-2,3.12-1.3,6.46-1.9,9.36-3.95,2.29-1.62,2.57-4.14,3.83-6.2.12-.2-.58-1.14-1.07-1.45-1.08-.68-.59.51-.88.82-2,2.16-3.39,2.06-5.36-.07-.66-.73-.24-.92.14-1.45C552.45,458.39,552.44,458.38,558.11,454.88ZM324.28,477.81c7.15,0,14.3,0,21.45,0a3.78,3.78,0,0,0,3.5-1.9c2.86-3.88,5.21-8.18,9.3-11.09a12.7,12.7,0,0,0,3.19-4.12c2.71-4.75,5.6-9.36,8.69-13.89,1.51-2.22,3.37-4.18,4.92-6.34,2.75-3.85,5.07-8,8.19-11.66,3.46-4,6.27-8.64,9.23-13.09A94,94,0,0,0,398,407a36.92,36.92,0,0,0,1.91-5.57c-2-.31-3.78-1.33-5.92-1.42-6.18-.26-12.43,1-18.56-.86a6.3,6.3,0,0,0-4.41,0c-2.37,1.32-4.75.69-7.13.88-1,.08-2.1-.27-3,.06-5.61,2.13-11.39.38-17.06.95-1-1.3-1.83-.61-2.51.36-.44.63-.72,1.37-1.16,2-1.78,2.56-2.7,5.62-4.3,8.16a56.15,56.15,0,0,0-4.83,9,42.32,42.32,0,0,1-3.88,7.35c-1.52,2.36-3.49,4.4-4,7.34-.11.64-1,1.31-1.65,1.64a8.59,8.59,0,0,0-5.22,6.86c-.16,1.24-.84,1.12-1.67,1.17-1.09.07-1.22-.46-1.42-1.43-.57-2.74,1.78-5.42.09-8.18-.15-.26.16-.91.4-1.28a23.22,23.22,0,0,1,2.49-3.44c.73-.77,2.18-1,2.61-1.86s-.37-1.89-.52-2.88c0-.25.28-.54.4-.82,2.49-5.85,2.95-12.27,5.4-18.2,1.81-4.41,1.86-9.5,3.25-14.12.93-3.09.35-6.68,2.89-9.26-.85-2.2,2-2.83,2-4.66-.05-3.85,1.54-7.29,2.64-10.87.64-2.06,1.74-4.63,1-6.28a4.14,4.14,0,0,1,.31-4.31,5.87,5.87,0,0,0,1-2.57c0-3.22,2.59-5.81,2.1-9.12,2.12-1.94,1.58-4.67,2.2-7.08.66-2.57,1.32-5.11,1.88-7.71a31.11,31.11,0,0,0,.86-7.09c2.22-1.75.38-4.32,1.31-6.44a33.18,33.18,0,0,0,1.65-6.79c.07-.35-.32-.81-.5-1.21-.23.23-.56.42-.69.71a17.16,17.16,0,0,1-5,5.88c-1.91,1.63-4.14,2.85-6.15,4.36-4.45,3.34-9.2,6.39-13.16,10.24-3.74,3.64-8.84,5.74-11.64,10.39a1,1,0,0,1-.85.28c-1.4-.3-2.08.69-2.89,1.5-1.4,1.41-2.82,2.81-4.22,4.23a13.34,13.34,0,0,0-3.94,6.38c-.86,3.43-3.63,5.93-7,7.43a3.29,3.29,0,0,1-2.63,0c-.73-.44-1-.44-1.46.15-1.36,1.73-1.62,4.15-3.5,5.55-.06,0,.1.49.25.68,1.18,1.46.47,1.9-1,2.1-.4.06-.65.84-1.08,1-2.7.92-4,4-7.18,4.43-1.13.16-1.49-.25-1.73-.68a3.11,3.11,0,0,1-.39-2.27c.78-2,1.92-3.86,2.7-5.86s3.18-3.8,2.25-6.56a1,1,0,0,1,.27-.86c2.6-2.28,2.61-6,4.71-8.53,2.61-3.15,4.26-6.83,6-10.49a17.78,17.78,0,0,1,1.32-2.94c2.76-3.78,4.73-8,7-12.05,2.67-4.71,5.36-9.41,8.13-14.07.49-.82.66-2-.06-1.89-1.33.19-1.83-2.24-3.44-.7-4.84,4.66-9.83,9.16-14.69,13.8-.77.73-1.07,2-1.83,2.69s-2.14,1.34-3,2.18c-2.07,1.92-3.74,4.43-6.09,5.84s-5.05,2.44-6.19,5.34a1.4,1.4,0,0,1-1.2.59c-1.59-.33-1.68.86-2.21,1.81a41,41,0,0,1-2.42,3.49c-.44.64-1.15,1.31-1.17,2-.1,2.56-1.78,4.08-3.44,5.57a18.25,18.25,0,0,0-5.37,7.74c-.72,2.27-2.12,4.11-2.88,6.31a27.45,27.45,0,0,1-4.84,7.93c-2,2.49-2.86,5.51-4.48,8.14a102.24,102.24,0,0,1-5.74,9.08,100.3,100.3,0,0,0-8.34,13,101.93,101.93,0,0,0-5.55,11.18c-.55,1.37-3.43,2.43-1.32,4.61-.82,1.39-1.55,2.93-3.48,2.95-1,0-1.32.21-1.59,1.28s-1.61,2.07-1.81,3.2c-.69,4-3.11,6.79-5.66,9.66A19.48,19.48,0,0,0,204.1,442c-1.5,4.09-3.73,7.77-5.48,11.7a17,17,0,0,1-3.41,5.07,26.79,26.79,0,0,0-6.66,11.7,15.43,15.43,0,0,1-4.27,7.22c-.23.21-.23.68-.34,1a9.22,9.22,0,0,0,4-.91c1.45-.93,2.28,1.31,3.87.45,1.17-.63,2.86-.28,4.31-.41,3.19-.29,6.33-.06,9.61-.78,4.34-.94,9-.48,13.52-1,5.4-.68,10.95-.3,16.43-.12s11.06-.67,16.58.84c2.7.74,5.81-.38,8.53,1.11,5.24-.57,10.36.78,15.55,1,3.15.12,6.31,0,9.47,0s6.32.13,9.47,0,6-.85,9.07-.91C311,477.71,317.63,477.81,324.28,477.81ZM488.05,240.92c-.35-.76-.41-1.13-.63-1.31-1.31-1.1-.74-3.31-2.59-4.14-1.7-.76-1.13-2.93-2.5-4.22s-1.76-3.51-2.47-5.38c-2-5.23-5.05-9.93-8-14.6-1.66-2.63-3.39-5.27-4.89-8-1.1-2-3.4-3.47-3.08-6.19-2.7-3.62-2.75-8.73-6.66-11.74a3.87,3.87,0,0,1-1.23-2.9c.25-3.7-2.1-6.48-3.11-9.72a7.6,7.6,0,0,0-1.74-3.24c-2.39-2.21-3.45-5.25-5.14-7.88-3.53-5.48-6.74-11.15-10-16.78-1.48-2.53-2.54-5.34-4.24-7.7a145.09,145.09,0,0,1-11.13-18.35,93,93,0,0,0-8.23-13c-.93-1.24-1.43-1.15-2.36.18-2.7,3.87-5.39,7.75-8.16,11.57-1.32,1.82-2.88,3.45-4.2,5.26s-2.16,3.88-3.65,5.43c-2.26,2.34-3.31,5.32-4.73,8s-4.69,4.52-4.33,8.17c-3.5,4.24-5.62,9.36-8.77,13.83-1.31,1.87-3,3.51-3.4,6.11-.16,1.07-.72,3.12-2.84,3.44-.68.11-1.27,1.25-1.8,2a33.79,33.79,0,0,0-2.86,4.3,92.27,92.27,0,0,1-15.16,21.15,15,15,0,0,0-1.93,3.18c-.59,1.08-1,2.25-1.64,3.3-4.09,6.79-8.34,13.48-12.29,20.35-3.17,5.5-5.6,11.43-9.55,16.48-.73.93.28,3.22,1.2,2.84,1.71-.71,3.42.23,4.64-.12,1.63-.47,2.81-1.27,4.21.19,1.43-1.71,3.38-.92,5.09-.92q31.17-.08,62.34,0c1.89,0,3.84-.52,5.63.89.58.45,1.91.06,2.86-.11a18.73,18.73,0,0,1,2.65-.77,37.8,37.8,0,0,0,13.86-2.72c.41-.16,1.15-.4,1.3-.22,1.34,1.55,3.13.54,4.63.95a9.16,9.16,0,0,0,4.68,0,11.26,11.26,0,0,1,4,0c1.38.17,2.71.75,4.09.92a31.06,31.06,0,0,0,4,0h8c1.17,0,2.34-.09,3.49,0s2.49.88,3.39.51c1.39-.57,2.1.86,3.37.54a12,12,0,0,1,4-.06c5,.43,10.16-1,15.13.78C487.43,241.37,487.87,241,488.05,240.92Zm-68,9.76,0,.56a34.82,34.82,0,0,1,3.69.26,1.73,1.73,0,0,1,1.22,1c.14.88.46,2.13-1.24,2-3.69-.34-7.38-.64-11.06-1-2.86-.29-5.65.09-8.62-.8-3.78-1.13-8-.92-12-1.16-2.32-.14-4.65,0-7,0-2.16,0-4.32-.07-6.48,0s-4.26.49-6.38.49-4.17-.4-6.26-.49c-2.32-.09-4.69.23-7-.08-2.43-.34-4.68.6-7.19.22a57.37,57.37,0,0,0-11.94-.1c-3.85.22-7.84-1.1-11.57.91a1.66,1.66,0,0,1-1.46,0c-2.51-2-5.41-.51-8.09-.92a1.8,1.8,0,0,0-1.4.82c-1.73,3.1-3.41,6.22-5,9.39-1.11,2.2-2.32,4.44-3.57,6.45-2.06,3.32-3.43,6.95-5.42,10.26-.72,1.2-1.17,3-2.21,3.46-1.72.72-2.08,2.1-2.75,3.38-.79,1.49-1.15,3.25-2.11,4.59-4.08,5.75-7.23,12.09-11.55,17.68a23.37,23.37,0,0,0-2.31,4.51,1.28,1.28,0,0,0,.19.9c0,.08.53.07.66-.06,1.67-1.62,3.81-3,4.82-5a16.23,16.23,0,0,1,5.51-6.09c3.37-2.2,5.71-5.34,8.66-7.9s6.29-4.81,8.65-7.83a68.06,68.06,0,0,1,10.78-11.37c4.51-3.62,8.34-7.86,12.54-11.75a8.74,8.74,0,0,1,1.07-1,1.91,1.91,0,0,1,1.27-.43,1.29,1.29,0,0,1,.66,1c-.05,1.28.23,3-.48,3.73-2.87,2.95-3.27,7-5.12,10.4-1.6,2.94-2.34,6.33-3.64,9.45a27.06,27.06,0,0,1-3.2,6.13c-3.15,4.12-5.24,8.89-7.13,13.52-2.09,5.09-5,9.56-7.63,14.28-1.5,2.72-3.13,5.36-4.66,8.06-.11.19.14.58.22.88a2.07,2.07,0,0,0,.69-.21c2.23-1.86,4.5-3.69,6.63-5.65,1.54-1.4,3.24-2.72,3.9-4.85,2.37-.36,3.17-2.7,4.89-3.85.87-.58.11-2.62,2-2.14,1.89-1.86,3.72-3.78,5.68-5.57s4.26-3,5.86-5c4-4.88,7.47-10.13,11-15.36,1.35-2,2.65-3.8,5.51-4.18,1.5-.2,2.8-2,4.19-3-.43-2.71,2.38-2.92,3.46-4.46a16,16,0,0,0,2.07-3.13c.75-1.92,3.31-2.65,3.2-5.09,0-.22.4-.55.68-.68a3,3,0,0,1,1.34-.33c.17,0,.48.48.48.74-.06,3,.54,6.13-1.21,9a6.36,6.36,0,0,0-.73,2.67c-.12,1.32.52,3.27-.14,3.87-1.71,1.54-.36,3.68-1.72,5.41-.94,1.2-.18,3.6-1.07,5.47-.79,1.65-.42,3.83-1.17,5.5-1.42,3.14-1.57,6.58-2.75,9.82-1.47,4-2.8,8.15-4,12.28-.29,1-2.25,2.84.23,4,.18.08.29.8.14,1-2,2.67-1.21,6.1-2.51,8.95-.51,1.13-1.22,2.12-1,3.57.78,6.51-2.23,12.34-3.54,18.47-.54,2.53,0,5.5-2.38,7.49-.17.14,0,.64,0,1,.13,2.44,0,4.76-1.71,6.79-.4.49-.13,1.52-.17,2.31.59-.34,1.36-.54,1.72-1a27.64,27.64,0,0,0,2.14-3.59c2.95-5.55,5.37-11.42,10.23-15.72a6,6,0,0,0,.76-1.17c2.79-4,4.74-8.41,7.63-12.32,1-1.39.35-2.24-1.16-.7-.5-.63-1.27-1.19-1.43-1.89-.27-1.26.83-1.09,1.62-1.09a11.73,11.73,0,0,0,3-.07,8.9,8.9,0,0,0,2.29-1.47,18.63,18.63,0,0,0-2.3-.44c-1-.08-2,.05-3-.05-.57-.06-1.53-.34-1.57-.62a5.25,5.25,0,0,1,.37-2.2c2,.15,2.37-2.78,4.66-2.19s2.86-2.4,4.74-2.92c.25-.07.58.18.88.23A8.25,8.25,0,0,0,380,324.8c1.08-1,2.09-2.14,3.2-3.14a1.52,1.52,0,0,1,1.29-.34c.3.12.49.76.54,1.19.09.65-.16,1.41.09,2a2.19,2.19,0,0,0,1.41.7c1.63-2.15,4.24-.39,6.35-1.71,1.68-1,4.53-.26,6.85-.16.44,0,1.27.7,1.22.94-.43,2.19.92,2,2.36,2,3.66-.05,7.31,0,11,0,1,0,2.17-.34,3,.06,3.77,1.93,7.75.74,11.59.79,1.24,0,2.61-.72,4-.24,1.62-1.84,2.91.42,4.31.32a43.64,43.64,0,0,0,6.48-1.18c.41-.09.8-.62,1.05-1,.86-1.46,1.7-2.95,2.48-4.46,3.67-7.11,7.79-14,10.73-21.47.51-1.29,1.13-2.53,1.6-3.83.35-1-1.5-1.95.09-3.17,1.07-.82,1.68-2.25,2.52-3.39.19-.27.54-.44.69-.72,4.72-9.29,10.43-18,16.1-26.71,2.27-3.48,3.39-7.69,7.35-10.53Zm113.23,79.55c2.49,0,5,0,7.47,0,.24,0,.48-.46.71-.7-2.08-.79-1.52-3-2.42-4.48-2.45-3.94-4.82-7.94-7-12s-4-8.18-7.4-11.38a6.72,6.72,0,0,1-.85-1.62c-1.78-3.24-3.54-6.46-5.08-9.84a88.08,88.08,0,0,0-8.47-14.93,47.74,47.74,0,0,1-3.39-6.06c-.71-1.35-1.26-2.79-1.93-4.17s-1.32-2.79-2.13-4.1c-1.24-2-2.62-3.89-3.93-5.84a1.09,1.09,0,0,0-2-.13c-.73.83-1.31,1.79-2,2.63-2.6,3-3.81,6.77-6,9.94-1.88,2.69-3.37,5.63-5.16,8.28s-3.08,5.77-5,8.48c-2.73,3.92-5.59,7.85-7.46,12.31-.88,2.12-2.52,4-2.5,6.43-2.24,1.34-1.87,4.22-3.69,6-1.54,1.52-2.08,4.05-3.12,6.11a6.31,6.31,0,0,1-1.3,1.93c-2.83,2.47-4.28,4.6-5.93,8.93-.17.46-1.25.8,0,1.26.87.32,2.23,1.17,2.49.91,1.4-1.41,2.47.48,3.76.14s2.54.24,3.59-1c1.19-1.43,2.28,1.85,3.79.26.26-.28,1.59.69,2.4.65s2.24-1.11,2.5-.85c2.47,2.51,5.18-.67,7.63.48,1.65-2,2.61,1.49,4.37.51a14,14,0,0,1,4.53-1c.38-.06.82.52,1.24.53,2.23.09,4.59.56,6.63-.05,1.3-.38,3.1-.89,3.64-.4,1.53,1.41,2.67-1,3.74-.09,2.44,2,5.59.22,8.25,1.82,1.34.81,3.57.05,5.39.17,1.56.1,3.32-.67,4.6.9,1.56-1.59,3,.54,4.64.16S531.44,330.23,533.27,330.23Zm-146.48,11c-1.84,0-3.51-.06-5.16,0a2.35,2.35,0,0,0-1.52.74c-2.33,2.83-4.43,5.88-6.94,8.55s-4,6.31-7.23,8.47c-1,.65-1.29,2.38-1.75,3.68-.13.36.61,1.22.47,1.35-3.5,3.33-4.9,8-7.42,11.92-1.6,2.49-3.06,5.06-4.84,7.46a73.47,73.47,0,0,0-4.2,6.72c-.21.36,0,1,0,1.47.47-.16,1.14-.17,1.37-.5.81-1.15,1.92-1.07,3.09-1,1.33,0,2.66,0,4,0s3-.51,4,.93c1-2,2.22,1.12,3.1-.13,1.42-2,2.47.47,3.75.21,1.69-.35,3.61.72,5.12-1,.3-.33,1.28-.1,1.94,0,1.7.15,3.36,2.11,5.11.11,5.1,2,10.4.62,15.59.72,1.72,0,3.43,1.66,5.2.25.05,0,.43.39.69.54,1.33.78,2.28.28,3.44-.63,1.37-1.06,1.05-2.62,1.75-3.8a143,143,0,0,1,7.7-12.24c2.44-3.28,3.52-7.34,6.62-10.29a16.85,16.85,0,0,0,3.88-6.8c1.36-4.08,3.76-7.45,6-11a42.94,42.94,0,0,1,5.3-7.27c.17-.17,0-.64,0-1a2.83,2.83,0,0,1-1,0c-1.82-.67-3.92,1.76-5.56-.53-1.53.33-3.05.68-4.58,1s-3.09-2.35-4.81-.42c-.79.9-1.26-1.21-2.25,0-.49.62-2.14.47-3.24.36-.88-.08-1.74-.92-2.58-.87-1.41.08-2-.82-2.89-1.55a2.3,2.3,0,0,0-1.22-.48c-1.45,2.13-2.83-.25-4.21,0-1.56.25-3.28-.69-4.71.66-.83.78-1.41.19-2.07-.39-.83-.73-1.41,0-2.05.5s-.58.84,0,1.46.48,1.22-.53,1.8C391.75,341.67,389.15,341,386.79,341.2Zm126.05,49.9c.14-1.38-.44-1.9-1.75-2.29-1.89-.57-3.58-1.8-5.48-2.31-1.45-.39-3.45-.66-4.57,0a9.63,9.63,0,0,0-4.08,4.64,7.18,7.18,0,0,0,2,7.5c1.19,1.14,2.37,2.31,3.5,3.51s2,1,3.43.34C510.81,400.22,512.16,395.9,512.84,391.1Zm53.79,82.77a9.11,9.11,0,0,1,0,1.34c-.12.58-2.14,1.61.26,1.57,3.67-.07,7.23-1.48,11-1,.2,0,.74-.67.7-1a9,9,0,0,1,1.56-5.78c1.15-1.92-.19-2.6-1.07-3.08-1.36-.73-1.22.85-1.67,1.58-.63,1-1.49,1.68-2.42.18s-3,1.64-3.83-.79c0-.11-.64-.13-.92,0a1.35,1.35,0,0,0-.72.63C568.5,469.72,565.76,471.21,566.63,473.87ZM387.87,338.21c1.47,0,2.95.05,4.42,0,.28,0,.71-.62.71-1s-.44-.92-.72-.94c-1.88-.14-3.73.08-5.54-1a2.28,2.28,0,0,0-3,.78c-.24.39-.7,1-.58,1.18a2.08,2.08,0,0,0,1.29.91A30.35,30.35,0,0,0,387.87,338.21Z" transform="translate(-158.63 -69.92)"/><path d="M267.37,460.86H250.91c-2.4,0-4.79-.16-7.11.92-.56.26-2.07.76-2.35-.8a2.28,2.28,0,0,1,1-2.59,6.13,6.13,0,0,1,.78-.51c2-.74,3.36-1.89,3.24-4.22,3.54-3,3.19-8,5.81-11.61,1.48-2.05,2-4.92,4.16-6.69.23-3.58,2.53-6.29,4.05-9.29a71.21,71.21,0,0,1,6.79-10.7,47.82,47.82,0,0,0,6-11.91c1.52-4,4.36-7.13,6.16-10.91.54-1.13,3.4-.59,3.62.81.62,3.94,2.93,7.17,4.49,10.62,2,4.49,3.14,9.34,5.69,13.62,1.22,2.07,1.38,4.73,2.28,7a149.31,149.31,0,0,0,6.81,15.62c2.92,5.46,4.25,11.54,6.87,17.1.65,1.38-1.35,4.34-2.81,4.5a1.1,1.1,0,0,1-.86-.28c-.95-1.23-2-1.83-3.39-.7-1.11-1.34-2.66-1.06-4.07-1s-3-.67-4.17.81c-.21.26-1,0-1.39.18-1.56.92-2.44-2-4.43-.52-1.22.88-3.45.42-5.23.48s-3.33,0-5,0H267.37Zm13.55-60.31c-2.29,4.92-4.69,9.25-6.35,13.85a69,69,0,0,1-5.85,12.47c-3.62,5.95-7.18,11.92-10.33,18.13-.84,1.64-1.38,3.58-2.61,4.84s-1.33,2.81-1.41,4.44c-.08,1.39.5,1.67,1.72,1.61,3.69-.18,7.36.2,11.06-.89,2.29-.67,4.94-.12,7.43-.12,2.65,0,5.32.17,7.95-.05,2.38-.2,4.93,1,7.12-.79,2.39,1.17,4.71-.39,7.07-.16a6,6,0,0,1,2.33.35c.73.44,1.42,1.19,2,.25a3.12,3.12,0,0,0,0-2.29c-.89-2.77-2.46-5.28-3.14-8.14a7.87,7.87,0,0,0-1.1-3c-.64-.8-1.85-1.13-2.67-1.83s-1.68-1.42-1.75-2.21c-.22-2.55-3.17-4.24-2.13-7.14.1-.27-.47-.76-.7-1.17a44.22,44.22,0,0,1-5.07-15.75C283.87,408.68,282.17,405,280.92,400.55Z" transform="translate(-158.63 -69.92)"/></g></svg>